<svg width="160" height="63" viewBox="0 0 160 63" fill="none" xmlns="http://www.w3.org/2000/svg">
<g clip-path="url(#clip0_2_13)">
<path d="M73.048 62.4476H0.553394V17.291H73.048V62.4476ZM73.6014 16.7381H0V63H73.6014V16.7381Z" fill="#F7C23B"/>
<path d="M24.6096 57.5349C13.9222 57.5349 5.72227 50.4035 5.72227 40.4199C5.72227 30.4364 13.8301 22.4771 24.9782 22.4771C30.1837 22.4771 33.7769 23.3973 36.6791 24.1793L37.6005 32.6446L37.1398 32.7828C32.1189 26.0658 29.3544 23.5354 24.748 23.5354C17.1927 23.5354 14.6131 30.4823 14.6131 40.4199C14.6131 50.4493 18.1604 56.4762 24.6558 56.4762C30.2299 56.4762 33.2702 51.8755 37.3241 44.8825L37.7848 45.0207L36.8634 54.084C35.6197 54.958 31.2434 57.5349 24.6096 57.5349Z" fill="#384C63"/>
<path d="M41.6991 56.8446V56.7526C43.035 53.486 43.5416 51.6 43.5416 47.1371V32.8748C43.5416 28.3661 43.035 26.5721 41.6991 23.2593V23.1673H66.0683L67.7728 32.0472L67.2662 32.1848C64.7787 29.7002 60.4943 24.5938 58.1451 24.4556L51.7877 23.9955V38.9014H54.8281C57.2697 38.9014 59.5732 36.0494 61.4157 34.301H61.9223V44.7446H61.4157C59.5732 43.1347 57.3618 39.9601 54.8281 39.9601H51.7877V47.1374C51.7877 51.5538 52.2944 53.4404 53.6306 56.7528V56.8449H41.6991V56.8446Z" fill="#384C63"/>
<path d="M92.3189 34.9927C86.9596 34.9927 83.5028 31.1002 83.5028 26.1648C83.5028 21.2297 87.3542 17.3369 92.7594 17.3369C95.2423 17.3369 97.3764 17.9625 98.6061 18.4492L99.0701 22.2491L98.8847 22.3187C96.5878 19.098 95.1493 17.8003 92.4579 17.8003C88.1657 17.8003 86.4491 21.3687 86.4491 26.1648C86.4491 30.9841 88.2355 34.5292 92.3189 34.5292C95.5901 34.5292 97.3761 32.2815 98.9771 29.0147L99.163 29.0843L98.6987 33.3244C98.3277 33.6256 95.4741 34.9927 92.3189 34.9927Z" fill="#384C63"/>
<path d="M106.496 33.4631C105.777 34.2744 104.64 34.9926 103.155 34.9926C101.763 34.9926 100.673 34.3438 100.673 33.0231C100.673 30.6828 104.013 29.5241 106.45 29.1539V26.6281C106.45 25.4236 105.962 24.6357 104.315 24.6357C103.41 24.6357 102.227 24.8673 101.23 25.6784L101.114 25.5394C102.065 24.1723 103.689 23.2455 105.731 23.2455C108.051 23.2455 108.77 24.5893 108.77 26.0028V32.6061C108.77 33.1853 109.002 33.6255 109.675 33.6255C110.023 33.6255 110.371 33.5327 110.811 33.1851L110.858 33.2315C110.486 33.9732 109.837 34.923 108.422 34.923C107.238 34.923 106.658 34.2744 106.496 33.4631ZM106.45 33.0696V29.5474C104.617 29.9646 102.854 30.7293 102.854 32.2582C102.854 33.1619 103.457 33.7413 104.547 33.7413C105.359 33.7416 106.055 33.4404 106.45 33.0696Z" fill="#384C63"/>
<path d="M119.093 26.2807C117.911 24.2649 116.588 23.6624 115.497 23.6624C114.291 23.6624 113.595 24.4271 113.595 25.3768C113.595 26.6977 115.056 27.2769 116.588 27.8794C118.189 28.5514 119.882 29.455 119.882 31.6561C119.882 33.9499 117.956 34.9926 115.544 34.9926C114.337 34.9926 113.131 34.7378 112.133 34.3899L111.901 31.4242L112.04 31.3778C113.224 33.6252 114.361 34.5753 115.845 34.5753C117.399 34.5753 117.98 33.5329 117.98 32.5826C117.98 31.3778 117.098 30.8218 115.52 30.1498C113.943 29.4548 112.087 28.7366 112.087 26.3963C112.087 24.0562 114.082 23.2452 116.124 23.2452C117.237 23.2452 118.374 23.4538 119 23.7086L119.233 26.234L119.093 26.2807Z" fill="#384C63"/>
<path d="M127.052 33.4631C126.333 34.2744 125.196 34.9926 123.711 34.9926C122.319 34.9926 121.229 34.3438 121.229 33.0231C121.229 30.6828 124.569 29.5241 127.005 29.1539V26.6281C127.005 25.4236 126.518 24.6357 124.871 24.6357C123.966 24.6357 122.783 24.8673 121.785 25.6784L121.67 25.5394C122.621 24.1723 124.245 23.2455 126.287 23.2455C128.607 23.2455 129.326 24.5893 129.326 26.0028V32.6061C129.326 33.1853 129.558 33.6255 130.231 33.6255C130.579 33.6255 130.927 33.5327 131.367 33.1851L131.413 33.2315C131.042 33.9732 130.393 34.923 128.977 34.923C127.794 34.923 127.214 34.2744 127.052 33.4631ZM127.005 33.0696V29.5474C125.173 29.9646 123.409 30.7293 123.409 32.2582C123.409 33.1619 124.013 33.7413 125.103 33.7413C125.915 33.7416 126.611 33.4404 127.005 33.0696Z" fill="#384C63"/>
<path d="M140.625 34.9926C137.91 34.9926 136.17 32.6988 136.17 29.6171C136.17 26.2573 138.235 23.2453 142.225 23.2453C143.13 23.2453 143.919 23.4075 144.569 23.6623V20.9052C144.569 19.3528 144.081 18.5185 143.525 17.8929V17.8467L146.889 16.6187V29.7096C146.889 32.838 147.167 33.4631 147.956 34.1352V34.1816L144.661 34.923V32.6523H144.592C143.919 33.8575 142.527 34.9926 140.625 34.9926ZM144.568 32.1892V26.2344C144.128 24.2649 142.991 23.6625 141.924 23.6625C139.882 23.6625 138.606 25.7942 138.606 28.8295C138.606 31.6103 139.673 33.4407 141.831 33.4407C143.037 33.4405 143.942 32.9303 144.568 32.1892Z" fill="#384C63"/>
<path d="M154.314 34.9926C151.228 34.9926 149.094 32.5597 149.094 29.3158C149.094 25.6087 151.901 23.2452 154.453 23.2452C157.168 23.2452 159 25.7245 158.884 27.7636H151.437V28.2038C151.437 31.4706 153.061 33.0231 155.497 33.0231C156.912 33.0231 157.957 32.4668 158.768 31.4706L158.908 31.5632C158.281 33.4868 156.727 34.9926 154.314 34.9926ZM151.484 27.3927L156.518 27.2769V27.0222C156.518 24.7051 155.822 23.6622 154.36 23.6622C152.597 23.6622 151.669 25.2845 151.484 27.3927Z" fill="#384C63"/>
<path d="M83.9437 62.4518V62.4053C84.6863 60.9919 84.8717 60.1347 84.8717 58.2578V49.685C84.8717 47.8081 84.6863 46.9509 83.9437 45.5374V45.4913H95.3582L96.2633 49.6153L96.0541 49.6618C94.8248 48.4337 93.1776 45.9776 92.1333 45.9776L87.5396 45.8154V53.4617H89.9992C91.1356 53.4617 92.0639 51.9095 92.8757 51.0288H93.0843V56.2648H92.8757C92.1331 55.4541 91.1123 53.9251 89.9992 53.9251H87.5396V58.2578C87.5396 60.1811 87.7023 60.9687 88.4677 62.4053V62.4518H83.9437Z" fill="#384C63"/>
<path d="M101.576 61.2695C100.857 62.0808 99.72 62.799 98.2353 62.799C96.8435 62.799 95.7528 62.1502 95.7528 60.8295C95.7528 58.4892 99.0936 57.3306 101.53 56.96V54.4343C101.53 53.2297 101.042 52.4416 99.3952 52.4416C98.4904 52.4416 97.307 52.6732 96.3095 53.4842L96.1938 53.3452C97.1451 51.9784 98.769 51.0513 100.811 51.0513C103.131 51.0513 103.85 52.3949 103.85 53.8086V60.412C103.85 60.9912 104.082 61.4314 104.755 61.4314C105.103 61.4314 105.451 61.3386 105.891 60.9909L105.938 61.0374C105.566 61.779 104.917 62.7288 103.502 62.7288C102.318 62.7294 101.739 62.0808 101.576 61.2695ZM101.53 60.8757V57.3538C99.6971 57.771 97.934 58.5357 97.934 60.0649C97.934 60.9685 98.5372 61.548 99.6273 61.548C100.439 61.548 101.136 61.2465 101.53 60.8757Z" fill="#384C63"/>
<path d="M108.352 61.6403L107.192 62.683H107.1V48.6884C107.1 47.1821 106.612 46.3014 106.056 45.6763V45.6299L109.42 44.4251V52.9979H109.466C110.278 52.0711 111.577 51.0516 113.364 51.0516C116.148 51.0516 117.818 53.4613 117.818 56.7978C117.818 60.1111 115.916 62.799 112.088 62.799C110.417 62.799 109.164 62.266 108.352 61.6403ZM115.382 57.238C115.382 53.9247 114.013 52.5577 111.971 52.5577C110.765 52.5577 109.953 53.0443 109.419 53.5077V58.1651C109.419 61.3856 111.09 62.382 112.319 62.382C114.152 62.382 115.382 60.4126 115.382 57.238Z" fill="#384C63"/>
<path d="M119.999 57.9569V55.3151C119.999 53.8323 119.512 52.9516 118.955 52.3265V52.164L122.319 50.9363V57.9337C122.319 59.9026 122.342 61.1309 122.83 62.4054V62.4518H119.466V62.4054C119.767 61.1309 119.999 59.9722 119.999 57.9569ZM121.043 48.596C120.277 48.596 119.651 47.9701 119.651 47.2057C119.651 46.4408 120.277 45.7922 121.043 45.7922C121.809 45.7922 122.435 46.4411 122.435 47.2057C122.435 47.9701 121.809 48.596 121.043 48.596Z" fill="#384C63"/>
<path d="M130.37 61.2695C129.65 62.0808 128.514 62.799 127.029 62.799C125.637 62.799 124.547 62.1502 124.547 60.8295C124.547 58.4892 127.887 57.3306 130.323 56.96V54.4343C130.323 53.2297 129.836 52.4416 128.189 52.4416C127.284 52.4416 126.101 52.6732 125.103 53.4842L124.987 53.3452C125.939 51.9784 127.563 51.0513 129.604 51.0513C131.924 51.0513 132.643 52.3949 132.643 53.8086V60.412C132.643 60.9912 132.875 61.4314 133.548 61.4314C133.896 61.4314 134.245 61.3386 134.685 60.9909L134.731 61.0374C134.36 61.779 133.711 62.7288 132.295 62.7288C131.112 62.7294 130.532 62.0808 130.37 61.2695ZM130.323 60.8757V57.3538C128.491 57.771 126.727 58.5357 126.727 60.0649C126.727 60.9685 127.33 61.548 128.421 61.548C129.233 61.548 129.929 61.2465 130.323 60.8757Z" fill="#384C63"/>
<path d="M135.683 62.4516V62.4052C136.124 61.1078 136.217 60.0185 136.217 57.9562V55.2221C136.217 53.6702 135.73 52.8357 135.173 52.2103V52.1639L138.444 50.9361V53.1604L138.537 53.1836C139.534 51.979 140.625 51.0519 142.272 51.0519C144.406 51.0519 145.543 52.349 145.543 54.4116V57.933C145.543 60.0417 145.59 61.1075 146.077 62.4052V62.4516H142.713V62.4052C143.107 61.131 143.223 59.9024 143.223 57.9562V54.9444C143.223 53.624 142.643 52.4651 141.089 52.4651C140.091 52.4651 139.21 52.9056 138.537 53.6238V57.933C138.537 59.9489 138.583 61.1308 139.047 62.4052V62.4516H135.683Z" fill="#384C63"/>
<path d="M147.725 56.937C147.725 53.8556 150.439 51.0518 153.664 51.0518C156.912 51.0518 159.627 53.8556 159.627 56.937C159.627 60.0649 156.912 62.7992 153.664 62.7992C150.393 62.799 147.725 60.0649 147.725 56.937ZM157.075 56.937C157.075 54.1565 156.031 51.5153 153.664 51.5153C151.321 51.5153 150.277 54.1568 150.277 56.937C150.277 59.7407 151.275 62.3355 153.664 62.3355C156.054 62.3355 157.075 59.7404 157.075 56.937Z" fill="#384C63"/>
<path d="M93.9044 13.5925C94.2675 13.3361 94.4105 13.0371 94.4789 12.6892C94.3521 12.2059 94.2982 11.7615 94.623 11.2906C94.8294 10.9913 95.0663 10.6852 95.1435 10.274C95.2008 9.96724 95.4033 9.53394 95.9158 9.78707C96.1833 9.91916 96.2636 9.60994 96.4573 9.57346C96.5369 9.46735 96.5964 9.33222 96.6999 9.26065C97.0563 9.01553 97.3172 8.8174 96.6579 8.62645C96.4744 8.57312 96.3939 8.35481 96.444 8.05913C96.859 8.30148 97.2785 8.46452 97.7334 8.49657C98.2112 8.53001 98.7206 8.48303 99.1501 8.38493C100.638 8.04531 102.13 7.98949 103.637 8.02459C103.767 8.02763 103.961 7.9801 103.944 7.93671C103.841 7.66728 104.203 7.38791 103.945 7.1602C103.704 6.94577 103.453 6.99855 103.174 7.1906C102.938 7.35364 102.617 7.70293 102.361 7.1754C102.332 7.11488 102.296 7.09582 102.234 7.13395C101.757 7.42521 101.595 6.64041 101.152 6.81699C101.247 6.39641 100.897 5.98715 101.044 5.60442C101.228 5.12277 101.465 4.60712 101.829 4.26529C102.098 4.01272 102.541 3.95966 102.463 3.44844C102.896 3.45756 102.809 3.1989 102.752 2.92505C102.715 2.74405 102.932 2.69846 103.004 2.59234C103.265 2.20879 103.921 2.30247 104.005 1.70972C104.042 1.44886 104.319 1.58869 104.321 1.69342C104.324 1.87469 104.46 1.91725 104.526 2.02171C104.594 2.12893 104.581 2.37431 104.789 2.29666C104.965 2.23089 105.186 2.14744 105.239 1.93604C105.326 1.59007 105.155 1.05425 105.841 1.20983C105.843 1.15594 105.822 1.08244 105.849 1.05176C106.036 0.843127 106.078 0.571487 106.189 0.329691C106.265 0.161678 106.413 -0.00965109 106.613 0.000573404C106.922 0.0160483 106.884 0.299571 106.857 0.481124C106.826 0.697221 106.767 1.0186 106.924 1.06337C107.619 1.26095 107.454 1.58896 107.141 1.99214C107.085 2.06509 107.038 2.25134 107.057 2.26184C107.55 2.54067 107.097 2.93583 107.15 3.27379C107.349 3.19172 107.509 3.1254 107.669 3.05908C107.853 2.88222 107.965 3.08782 107.945 3.17321C107.914 3.30695 107.925 3.39732 107.961 3.46253C108.006 3.50288 108.052 3.54239 108.097 3.58246C108.261 3.66039 108.495 3.66647 108.579 3.82232C108.687 4.02101 108.506 4.17963 108.416 4.35483C108.406 4.38329 108.393 4.41286 108.379 4.44298C108.353 4.53887 108.369 4.64194 108.483 4.76049C108.792 5.08215 108.579 5.30322 108.225 5.35434C108.023 5.38363 107.912 5.43945 107.872 5.52898C107.864 5.56021 107.859 5.59365 107.856 5.62902C107.859 5.70584 107.891 5.79952 107.949 5.91226C108.055 6.1209 108.007 6.35744 108.014 6.58929C108.051 6.69347 108.077 6.79544 108.073 6.88995C108.093 6.93637 108.12 6.98224 108.155 7.02701C108.313 7.2268 108.041 7.31357 107.938 7.31026C107.517 7.29644 107.456 7.46611 107.48 7.86293C107.508 8.33878 107.252 8.44048 106.828 8.1774C106.543 8.00055 106.304 8.08372 106.007 8.30728C106.38 8.32911 106.66 8.47308 107.004 8.50901C107.973 8.61015 108.906 8.86687 109.785 9.3394C110.377 9.65747 110.924 10.0988 111.626 10.1883C112.24 10.0197 112.976 10.4566 113.494 9.8136C113.303 9.42424 113.886 8.88427 113.601 8.78258C113.207 8.64248 112.736 9.06334 112.362 9.32116C112.058 9.5309 111.98 9.61602 111.715 9.25871C111.573 9.06666 111.021 9.20704 111.132 8.67453C111.095 8.67426 111.057 8.66984 111.02 8.67398C110.429 8.74334 110.691 8.33547 110.806 8.18763C110.956 7.9953 111.036 7.83088 110.829 7.71288C110.424 7.48352 110.696 7.35281 110.842 7.14694C111.049 6.85375 111.438 6.70342 111.501 6.30135C111.346 6.17368 111.446 5.98577 111.516 5.93907C111.892 5.69036 111.568 5.20152 111.881 4.92601C111.916 4.89506 111.694 4.59026 111.894 4.47945C112.06 4.38716 112.231 4.55987 112.421 4.69168C112.455 4.17852 112.544 3.78833 113.085 4.30398C113.169 4.38439 113.287 4.32332 113.3 4.20422C113.35 3.78474 113.645 4.04422 113.81 4.01742C113.898 3.58357 113.593 3.00326 113.809 2.79324C114.193 2.41991 114.186 2.01507 114.273 1.59173C114.295 1.48948 114.313 1.3234 114.49 1.4005C114.615 1.45494 114.801 1.31041 114.876 1.54585C114.94 1.75062 115.006 1.9471 114.965 2.16347C115.109 2.26295 114.929 2.69652 115.337 2.52243C115.518 2.15463 115.639 2.3721 115.667 2.58267C115.723 2.99607 115.715 3.42025 115.547 3.81155C115.421 4.10363 115.431 4.33521 115.71 4.5198C115.747 4.53444 115.789 4.56899 115.82 4.5607C116.181 4.46011 116.598 4.0492 116.808 4.74778C117.661 4.69168 117.18 5.20291 117.099 5.49278C117.063 5.62183 116.874 5.70805 117.013 5.88187C117.297 6.23641 116.926 6.40497 116.832 6.66888C116.736 6.93471 117.405 6.93002 117.281 7.31799C117.181 7.62721 117.358 7.74604 117.553 7.85796C117.711 7.9486 117.801 8.05029 117.752 8.2288C117.71 8.37858 117.588 8.42141 117.44 8.44545C117.179 8.48801 116.76 8.39074 117.011 8.93042C117.078 9.0755 116.863 9.23799 116.704 9.18742C116.214 9.03156 115.982 9.53892 115.576 9.59944C115.517 9.60828 115.471 9.81774 115.285 9.75087C115.062 9.67156 114.96 9.54638 115.03 9.30983C114.899 9.23412 114.731 9.2203 114.666 9.0393C114.602 8.85719 114.47 8.95584 114.397 9.02576C114.139 9.27087 114.214 9.68234 114.521 9.88959C114.685 10.001 114.884 10.0811 114.984 10.2748C115.365 10.5025 115.793 10.5785 116.219 10.6606C116.684 10.3011 117.275 10.1991 117.768 9.91418C118.152 9.69228 118.496 9.65636 118.899 9.78762C119.687 10.0443 120.351 10.4986 120.906 11.0914C121.266 11.4763 121.634 11.6037 122.145 11.4783C123.163 11.2284 123.947 11.5402 124.489 12.4739C124.667 12.7798 124.947 13.1299 125.347 13.0813C125.913 13.0125 126.466 13.1189 127.007 13.1741C127.809 13.2557 128.68 13.1059 129.4 13.6536C129.842 13.9899 130.242 14.356 130.596 14.7902C131.327 15.686 131.719 15.6686 132.416 14.7341C133.196 13.6873 134.102 13.152 135.489 13.5726C136.077 13.7509 136.848 13.8946 137.296 13.052C137.553 12.5681 138.203 12.7168 138.575 13.1548C139.015 13.6715 138.544 13.9899 138.421 14.3903C138.691 14.3712 138.958 14.3171 139.219 14.3419C139.619 14.3801 140.28 14.8482 140.219 15.2959C140.146 15.8212 139.664 16.0862 139.036 15.9964C138.664 15.9436 138.357 15.8173 138.078 15.5808C137.99 15.5059 137.854 15.4246 137.778 15.5562C137.684 15.7173 137.854 15.751 137.959 15.7706C138.589 15.8878 138.663 16.4007 138.568 16.842C138.44 17.4366 138.649 17.5513 139.165 17.5331C139.767 17.5113 139.93 17.721 139.741 18.3055C139.637 18.6285 139.6 18.949 139.617 19.2748C139.624 19.4122 139.602 19.6686 139.758 19.675C139.926 19.6816 140.139 19.5749 140.183 19.3334C140.204 19.2176 140.249 19.1052 140.292 18.9949C140.422 18.6597 140.638 18.5793 140.975 18.7288C141.184 18.8222 141.301 18.9883 141.443 19.1447C141.68 19.4058 142.012 19.5727 142.319 19.4006C142.616 19.2345 142.207 18.9728 142.271 18.7332C142.286 18.6769 142.197 18.5981 142.17 18.5243C141.97 17.9686 142.114 17.7608 142.705 17.797C143.061 17.8188 143.178 17.6947 143.085 17.3515C143.036 17.1678 142.966 16.9727 142.984 16.7903C143.012 16.5151 143.006 16.302 143.122 15.9657C143.32 15.3945 143.567 14.6785 144.142 14.2762C144.243 14.2057 144.466 14.0786 144.768 14.0604C145.862 13.994 146.575 15.5244 146.649 15.6899C146.919 16.2885 146.982 16.9144 146.8 17.0188C146.754 17.0448 146.633 17.1172 146.404 17.0708C145.776 16.9431 146.482 17.8199 145.542 17.9006C144.895 17.9562 145.152 17.7854 144.989 18.177C144.748 18.7559 144.436 17.9006 144.436 17.9006C144.491 18.3972 143.813 17.6425 143.626 17.9269C143.62 17.9346 143.623 17.9302 143.312 18.2474C143.052 18.5124 143.026 18.539 142.996 18.6003C142.921 18.7523 142.897 18.9286 142.914 19.1466C142.93 19.3525 143.037 19.6269 142.761 19.8756C142.28 20.3078 141.637 20.3219 141.226 19.9035C140.789 19.4586 140.593 19.4666 140.301 20.0254C140.078 20.4518 139.18 20.4628 139.121 20.0718C139.054 19.6335 138.81 19.1872 139.003 18.7095C139.253 18.0891 139.236 18.0769 138.565 18.0722C137.772 18.0667 137.665 17.9189 137.893 17.1222C137.976 16.8331 138.002 16.614 137.701 16.3808C137.513 16.2351 137.214 16.0552 137.245 15.7214C137.304 15.0861 137.37 14.4497 137.901 13.9924C138.022 13.8882 138.117 13.773 138.147 13.6088C138.172 13.4745 138.119 13.3571 138.022 13.3015C137.853 13.2043 137.856 13.3828 137.8 13.4731C137.435 14.0587 136.865 14.1568 136.224 14.2295C135.42 14.3204 134.634 13.9249 133.84 14.2046C133.573 14.4174 133.218 14.5796 133.06 14.8548C132.812 15.2881 132.134 15.5559 132.438 16.2376L132.553 16.6516C132.731 16.9517 132.976 16.8301 133.198 16.7353C133.57 16.5764 133.953 16.4659 134.354 16.4322C134.662 16.4062 134.85 16.4579 134.931 16.5908C135.047 16.6466 135.101 16.7488 134.957 16.9481C134.945 17.0053 134.927 17.0672 134.903 17.1341C134.861 17.2501 134.899 17.3946 134.9 17.5262C135.202 17.5975 135.506 17.8172 135.156 18.0288C134.851 18.214 135.007 18.3024 135.023 18.487C135.038 18.6617 135.223 19.0292 134.921 18.9969C134.442 18.9463 134.652 19.2591 134.681 19.3738C134.728 19.5667 134.716 19.7618 134.612 19.8742C134.376 20.1307 134.39 20.3387 134.521 20.651C134.602 20.8442 134.678 21.2766 134.14 21.1589C133.831 21.0912 133.938 21.3316 133.934 21.501C133.917 22.1452 133.902 22.7904 133.848 23.4321C133.827 23.6808 133.706 23.9239 133.441 23.5619C133.197 23.4907 133.177 23.2453 133.062 23.0739C132.983 22.9568 132.968 22.7896 132.742 22.9775C132.355 23.2997 132.218 23.056 132.104 22.6619C132.016 22.3541 132.089 21.8221 131.475 21.9385C130.982 22.1369 130.982 22.1369 130.898 21.3711C130.774 20.8961 129.945 20.7574 130.341 20.0171C130.055 20.1666 129.674 20.247 129.663 20.0406C129.638 19.5741 129.567 19.1417 129.4 18.7089C129.358 18.6003 129.512 18.4889 129.6 18.3826C130.122 17.7459 130.861 17.5953 131.604 17.514C131.853 17.4867 131.95 17.4513 131.98 17.2264C131.885 17.1454 131.83 17.0401 131.844 16.9185C131.896 16.4733 131.84 16.1741 131.254 16.213C130.919 16.2354 130.687 15.9607 130.471 15.6805C129.807 14.8206 129.082 14.1162 127.865 13.9808C127.065 13.8918 126.247 14.0264 125.461 13.7719C125.234 13.6984 125.12 13.8647 125.083 14.1369C125.037 14.4768 125.194 14.4132 125.41 14.4309C125.718 14.4558 126.02 14.4583 126.319 14.3972C126.535 14.3533 126.795 14.1203 126.909 14.4773C126.996 14.7495 126.723 14.8612 126.524 14.962C126.323 15.0635 126.135 15.2047 126.373 15.3865C126.785 15.701 126.983 16.1387 127.221 16.5662C127.303 16.7137 127.402 16.837 127.293 16.9835C127.182 17.1324 127.047 16.9796 126.923 16.9658C126.762 16.9478 126.52 16.7278 126.579 17.1611C126.608 17.3698 126.575 17.6923 126.334 17.7478C126.073 17.8075 126.056 17.4712 125.928 17.3101C125.898 17.2714 125.827 17.2639 125.731 17.2239C125.662 17.4411 125.603 17.6458 125.529 17.8448C125.493 17.9407 125.495 18.1258 125.324 18.0628C124.754 17.8525 124.783 18.3198 124.656 18.6241C124.582 18.7993 124.618 19.0792 124.418 19.1284C124.193 19.1834 124.037 18.9814 123.926 18.7821C123.907 18.7487 123.831 18.7479 123.783 18.7327C123.481 19.4114 123.144 20.0541 122.967 20.7613C122.941 20.8665 122.937 21.0069 122.774 21.0172C122.565 20.974 122.494 20.9196 122.468 20.6831C122.426 20.2995 122.259 20.0348 121.867 19.9419C121.731 19.935 121.701 19.8784 121.671 19.7305C121.517 18.9866 121.831 18.2969 121.879 17.579C121.887 17.459 122.05 17.2413 121.86 17.2371C121.192 17.2222 121.432 16.7939 121.496 16.4808C121.539 16.2661 121.48 16.1611 121.294 16.1666C120.803 16.181 120.891 15.9129 121.01 15.6266C121.112 15.3799 121.151 15.1892 120.797 15.1146C120.651 15.0839 120.388 15.1176 120.39 14.8822C120.394 14.6172 120.658 14.5898 120.856 14.5213C121.021 14.324 121.858 14.5252 121.246 13.8478C121.174 13.768 121.212 13.3839 121.579 13.5165C121.781 13.5895 121.994 13.6337 122.191 13.7185C122.466 13.8379 122.532 13.6843 122.567 13.4665C122.422 13.2863 122.518 13.0771 122.652 13.0332C122.821 12.9768 123.026 13.0669 123.169 13.2302C123.508 13.6154 123.855 13.9924 124.198 14.3712C124.373 14.2488 124.355 14.0731 124.417 13.9335C124.38 13.6124 124.302 13.3289 123.996 13.1302C123.808 13.0081 123.665 12.8085 123.523 12.6273C123.297 12.3379 123.062 12.1832 122.645 12.1998C121.597 12.2415 120.541 12.1409 119.861 11.2005C119.274 10.3884 118.505 10.3762 117.657 10.5138C117.519 10.5677 117.374 10.6103 117.243 10.6769C116.249 11.1823 115.235 11.2586 114.241 10.7255C114.011 10.602 113.864 10.5437 113.617 10.6271C112.505 11.003 111.43 10.8029 110.418 10.2966C109.252 9.71356 108.085 9.16006 106.768 9.02134C106.741 9.07412 106.727 9.13989 106.686 9.17719C106.466 9.37726 106.367 9.59418 106.496 9.89429C106.642 10.2314 106.933 10.2148 107.182 10.1416C107.443 10.0653 107.637 10.2198 107.865 10.2295C108.26 10.0731 108.527 10.2726 108.764 10.5534C109.221 10.5904 109.633 10.8963 109.484 11.2757C109.286 11.7817 109.228 12.4142 108.694 12.7583C108.677 12.9263 108.533 13.0354 108.667 13.2769C108.849 13.6047 108.726 13.999 108.284 14.099C108.136 14.1325 108.101 14.2007 108.041 14.2894C107.837 14.6401 107.727 15.0206 107.678 15.4208C107.215 15.657 106.889 16.0033 106.721 16.5079C106.528 17.0893 106.284 17.1495 105.765 16.7823C105.592 16.593 105.648 16.3821 105.707 16.1713C105.544 15.94 105.068 15.8679 105.323 15.4233C105.269 15.2854 105.253 15.0659 105.156 15.0228C104.175 14.5826 104.094 13.8368 104.4 12.9412C104.45 12.7939 104.483 12.6389 104.549 12.4993C104.564 12.4686 104.686 12.4885 104.758 12.485C104.753 12.2805 105.121 12.3479 105.043 12.0597C104.956 11.7347 105.067 11.4959 105.414 11.3387C105.651 11.2312 105.339 11.2276 105.326 11.1519C105.064 11.0082 104.966 10.7797 105.037 10.5003C105.147 10.0728 105.324 9.6746 105.618 9.33995C105.628 9.31674 105.644 9.29574 105.671 9.27944C105.794 9.14541 106.13 9.28883 106.104 9.01084C106.087 8.82265 105.825 8.81298 105.67 8.79364C105.159 8.73063 104.639 8.73533 104.131 8.65989C102.115 8.36006 100.153 8.65768 98.1996 9.13132C97.8308 9.22058 97.9965 9.49968 97.947 9.67598C97.8864 9.89152 98.1127 9.87384 98.2652 9.84178C98.4345 9.80669 98.569 9.89346 98.7129 9.95011C98.8847 9.95646 98.9376 10.0258 98.8858 10.2021C98.8349 10.3757 98.7652 10.4699 98.574 10.3972C98.0214 10.5053 97.5474 10.4978 97.5176 9.74507C97.5129 9.63425 97.4511 9.42065 97.2741 9.5193C97.1747 9.57457 96.9429 9.68952 97.0378 9.85339C97.2052 10.143 97.0809 10.3876 96.9844 10.6305C96.8305 11.0173 96.7954 11.3127 97.2854 11.4871C97.5679 11.5874 97.4232 11.735 97.2442 11.8328C96.3731 11.8049 96.2002 11.7341 96.4229 10.8706C96.4473 10.7758 96.478 10.6819 96.5142 10.5907C96.6814 10.1679 96.4434 10.1134 96.1236 10.1878C95.9326 10.2322 95.7575 10.3442 95.5751 10.4257C95.6166 10.5252 95.6582 10.6246 95.6958 10.7244C95.7672 10.7921 95.851 10.8532 95.8958 10.9391C96.0289 11.1942 96.074 11.4526 95.9036 11.6454C95.8698 11.6838 95.8419 11.7195 95.8192 11.7529C95.8015 11.8237 95.7769 11.895 95.7439 11.9668C95.7553 12.0812 95.8776 12.1509 96.0751 12.197C96.3742 12.2672 96.3825 12.533 96.3056 12.6737C96.2403 12.7928 95.955 12.8563 95.7929 12.7143C95.6582 12.5963 95.467 12.4941 95.4656 12.2686C94.8643 11.9373 95.5325 11.523 95.3928 11.1616C94.8037 11.5335 94.5754 12.5151 94.9199 13.1943C94.9996 13.091 94.936 12.8345 95.1994 12.9268C95.3784 12.9898 95.4111 13.1203 95.3845 13.3001C95.3281 13.684 95.0331 13.8343 94.729 13.863C94.5522 13.8799 94.3909 13.8921 94.2362 13.9722C93.864 14.1651 93.5813 14.0761 93.3829 13.7097L93.6734 12.805C93.9296 12.9779 93.8607 13.2717 93.9044 13.5925ZM138.333 15.103C138.311 15.2685 138.498 15.3401 138.66 15.379C138.982 15.4279 139.295 15.3848 139.589 15.2414C139.62 15.2259 139.646 15.1093 139.629 15.0947C139.357 14.8695 139.021 14.9024 138.702 14.8902C138.549 14.8844 138.351 14.9634 138.333 15.103ZM131.335 17.9769C131.021 18.0067 130.741 18.1792 130.456 18.3314C130.393 18.3651 130.33 18.3977 130.266 18.4276C130.203 18.4572 130.133 18.5727 130.214 18.6161C130.251 18.6357 130.285 18.655 130.317 18.6749C130.501 18.7874 130.602 18.9095 130.458 19.0988C130.433 19.1325 130.4 19.1679 130.359 19.2058C130.348 19.2154 130.388 19.318 130.425 19.3365C130.595 19.4213 130.737 19.5191 130.855 19.6283C131.119 19.8723 131.258 20.1749 131.283 20.5314C131.295 20.6991 131.282 20.8782 131.245 21.0688C131.242 21.0832 131.242 21.0948 131.241 21.1075C131.228 21.2849 131.382 21.3032 131.498 21.2739C131.69 21.2247 131.941 21.2554 131.977 21.3783C132.098 21.7937 132.349 22.0548 132.673 22.2408C132.794 22.3104 132.925 22.3695 133.065 22.4221C133.281 22.6033 133.464 22.6459 133.478 22.2814C133.491 21.9213 133.444 21.5582 133.474 21.2006C133.495 20.9608 133.353 20.6444 133.741 20.5131C133.941 20.4454 133.769 20.2885 133.748 20.1655C133.672 19.7236 133.684 19.3044 134.141 19.0463C134.097 18.9955 134.065 18.9507 134.04 18.9101C133.861 18.6141 134.153 18.5622 134.359 18.4942C134.379 18.4445 134.386 18.39 134.378 18.3284C134.308 17.9797 134.238 17.6342 134.168 17.2863C134.125 17.175 134.07 17.0688 133.994 16.971C133.823 16.9984 133.623 17.0304 133.421 17.0628C133.284 17.175 133.141 17.2697 132.955 17.2841C132.941 17.2852 132.93 17.2891 132.917 17.291C132.608 17.3358 132.449 17.6143 132.326 17.8235C132.257 17.9412 132.424 18.0244 132.565 18.1178C132.621 18.1546 132.673 18.1927 132.705 18.2353C132.915 18.5171 133.243 18.7506 133.23 19.1704C132.823 19.098 132.812 19.0947 132.585 18.5475C132.579 18.5337 132.574 18.521 132.568 18.5063C132.443 18.5296 132.316 18.3582 132.193 18.5058C132.024 18.7095 132.306 18.7899 132.318 18.9449C132.349 18.9891 132.378 19.0342 132.407 19.0792C132.639 19.4426 132.803 19.8372 132.931 20.2498C132.985 20.4239 132.956 20.5667 132.775 20.6278C132.565 20.6988 132.605 20.4755 132.531 20.3899C132.38 20.2163 132.471 19.9206 132.248 19.7485C132.224 19.7593 132.201 19.7692 132.178 19.777C132.195 20.1124 132.257 20.4164 132.376 20.709C132.443 20.8746 132.562 21.0522 132.389 21.2059C132.299 21.2849 132.14 21.3753 132.093 21.1368C131.996 20.6695 131.828 20.2152 131.819 19.7314C131.818 19.7115 131.816 19.6918 131.816 19.6722C131.664 19.549 131.817 19.4216 131.811 19.2964C131.638 19.206 131.845 19.0422 131.735 18.9283C131.699 18.9648 131.667 19.0179 131.631 19.0471C131.618 19.0582 131.604 19.0662 131.59 19.0687C131.418 19.0952 131.501 19.5012 131.245 19.3262C131.056 19.1966 131.131 18.9659 131.246 18.8029C131.345 18.6639 131.451 18.5304 131.558 18.398C131.639 18.2985 131.721 18.1993 131.801 18.0993C131.812 18.0858 131.823 18.0725 131.834 18.059C131.657 17.9819 131.492 17.962 131.335 17.9769ZM123.595 15.9055C123.474 15.8881 123.448 16.0074 123.414 16.0992C123.304 16.4007 123.335 16.7173 123.325 17.0279C123.322 17.1247 123.33 17.22 123.299 17.3007C123.312 17.2775 123.323 17.2532 123.331 17.2275C123.365 17.1241 123.382 17.0177 123.393 16.9108C123.395 16.9229 123.397 16.9356 123.399 16.9478C123.509 17.5204 123.194 17.5767 122.738 17.6641C122.792 17.5038 122.836 17.3477 122.874 17.1937C122.967 16.8141 123.015 16.4493 123.033 16.0798C123.033 16.074 123.034 16.0682 123.034 16.0627C123.041 15.9093 123.051 15.7549 123.124 15.6402C123.18 15.5537 123.27 15.4893 123.424 15.4661C123.349 14.9145 122.74 15.1958 122.511 14.8393C122.867 14.5412 123.216 14.8112 123.556 14.9059C123.801 14.9739 124.017 15.0684 124.046 14.6899C123.973 14.6597 123.908 14.6208 123.846 14.5779C123.597 14.4066 123.421 14.1526 123.199 13.9515C123.058 14.0496 123.158 14.377 122.845 14.3138C122.423 14.2284 122.025 14.2311 121.779 14.6691C121.719 14.7755 121.517 14.7302 121.433 14.765C121.394 14.781 121.381 14.8142 121.418 14.8872C121.513 15.0698 121.6 15.4266 121.822 15.444C121.834 15.4448 121.845 15.4456 121.857 15.4445C122.424 15.4 122.212 15.709 122.139 15.9502C122.127 15.9895 122.115 16.0273 122.104 16.0646C122.037 16.2821 122 16.4681 122.216 16.6668C122.238 16.688 122.264 16.7096 122.293 16.7314C122.537 16.9119 122.484 17.3137 122.356 17.5989C122.338 17.6395 122.324 17.6807 122.312 17.7221C122.261 17.8965 122.257 18.0775 122.241 18.2554C122.232 18.3629 122.216 18.469 122.184 18.5721C122.173 18.6072 122.162 18.642 122.146 18.6763C121.989 19.019 122.522 19.0806 122.428 19.3923C122.817 19.8076 123.007 19.636 123.123 19.1701C123.188 18.9079 123.454 18.7376 123.477 18.4445C123.508 18.0501 123.74 17.9846 124.032 18.18C124.388 18.4182 124.484 18.2693 124.449 17.9324C124.422 17.6762 124.574 17.4552 124.523 17.1849C124.482 16.9685 124.676 16.7801 124.893 16.9652C125.326 17.3369 125.4 16.9746 125.38 16.7077C125.354 16.3545 125.46 16.2818 125.766 16.3573C126.195 16.4634 125.852 15.9803 126.133 15.8784C126.321 15.8101 126.045 15.7098 125.949 15.6526C125.763 15.5407 125.549 15.4186 125.534 15.1986C125.494 14.5926 125.104 14.9366 124.857 14.9363C124.471 14.9361 124.476 15.1839 124.564 15.4636C124.572 15.4713 124.579 15.4791 124.587 15.4868C124.763 15.6628 124.903 15.8524 124.832 16.1417C124.538 16.1064 124.473 15.8278 124.286 15.6692C124.246 15.6352 124.201 15.6065 124.147 15.5871C124.138 15.6858 124.13 15.7822 124.121 15.8775C124.098 16.1495 124.076 16.4098 124.053 16.6704C124.212 16.9254 124.048 17.0713 123.841 17.0702C123.625 17.0688 123.623 16.8726 123.657 16.6748C123.685 16.5195 123.717 16.3564 123.69 16.1964C123.71 16.2252 123.729 16.2603 123.751 16.2923C123.745 16.2393 123.742 16.1851 123.747 16.1293C123.758 16.0257 123.699 15.9207 123.595 15.9055ZM114.718 6.01506C114.691 6.10902 114.667 6.20352 114.641 6.29775C114.657 6.45775 114.672 6.61858 114.688 6.78687C114.695 6.86452 114.703 6.94328 114.711 7.02535C114.873 6.84186 114.907 6.58874 115 6.35413C115.065 6.18971 115.161 6.03468 115.35 5.9189C115.371 5.90618 115.391 5.89347 115.414 5.88187C115.409 5.90176 115.404 5.92138 115.4 5.94128C115.333 6.22121 115.31 6.49782 115.273 6.76587C115.229 7.08449 115.166 7.39095 114.985 7.67585C114.853 7.88531 114.687 8.1354 114.718 8.35979C114.722 8.38935 114.729 8.41865 114.74 8.44711C114.815 8.63253 114.909 8.89837 115.124 8.92269C115.205 8.9318 115.304 8.90611 115.425 8.82845C115.454 8.81049 115.483 8.79004 115.513 8.76628C115.651 8.65906 115.926 8.50293 116.191 8.55405C116.196 8.55516 116.201 8.55488 116.206 8.55599C116.584 8.64027 116.347 8.34984 116.401 8.23682C116.373 8.0384 117.008 7.91737 116.506 7.701C116.205 7.57167 116.714 7.10881 116.173 7.13644C115.932 7.1486 115.841 6.81091 116.075 6.66584C116.545 6.3743 116.075 5.77852 116.507 5.50411C116.351 5.36484 116.303 5.01914 115.963 5.23109C115.85 5.30156 115.724 5.57486 115.587 5.24629C115.368 5.16339 115.209 5.0686 115.102 4.9484C114.938 4.76436 114.899 4.52007 114.965 4.16553C114.979 4.09175 114.997 4.0141 115.019 3.93037C115.081 3.70073 115.278 3.44595 114.837 3.36056C114.492 3.29397 114.324 3.46198 114.236 3.69935C114.219 3.74578 114.205 3.79469 114.193 3.84526C114.168 3.95773 114.179 4.1064 114.165 4.2407C114.115 4.737 113.74 5.00836 113.253 4.9951C112.938 4.98653 112.712 5.07026 112.51 5.49693C112.275 5.98991 112.815 6.10377 112.672 6.48456C112.427 6.49561 112.12 6.44781 111.895 6.67247C111.824 6.72691 111.766 6.78521 111.717 6.84656C111.504 7.11488 111.485 7.44538 111.534 7.79716C111.554 7.80324 111.573 7.8107 111.591 7.81899C111.83 7.92925 111.843 8.20366 111.964 8.39764C111.97 8.40676 111.976 8.41533 111.981 8.42417C111.983 8.42749 111.985 8.4308 111.987 8.43412C112.111 8.56096 112.231 8.61512 112.398 8.61844C112.407 8.61346 112.415 8.60904 112.425 8.60324C112.732 8.40704 113.094 8.41201 113.425 8.3222C113.519 8.29678 113.593 8.27108 113.65 8.24124C113.721 8.17602 113.768 8.10804 113.793 8.03454C113.797 7.96545 113.783 7.88062 113.747 7.76787C113.625 7.37298 113.374 6.94079 113.74 6.52711C113.989 6.59482 113.919 6.8087 113.98 6.95875C113.988 6.97589 113.995 6.99164 114.002 7.00601C114.107 7.22045 114.22 7.16435 114.319 6.94742C114.316 6.90929 114.319 6.87171 114.327 6.83468C114.313 6.81091 114.299 6.7866 114.285 6.76255C114.177 6.58238 114.074 6.4 113.957 6.22618C113.734 5.89375 113.631 5.5638 113.912 5.19683C114.198 5.31399 114.097 5.59973 114.186 5.79897C114.199 5.82715 114.215 5.8534 114.237 5.87744C114.272 5.82301 114.298 5.75309 114.324 5.68539C114.383 5.53368 114.448 5.39275 114.636 5.4599C114.814 5.52373 114.784 5.75807 114.734 5.95206C114.729 5.97361 114.724 5.99489 114.718 6.01506ZM106.326 10.3616C106.267 10.4088 106.225 10.4754 106.175 10.5335C106.338 10.6506 106.504 10.7443 106.781 10.5406C106.559 10.5818 106.61 10.1317 106.326 10.3616ZM106.831 11.1671C106.836 11.1729 106.841 11.179 106.846 11.1851C106.84 11.1798 106.834 11.1751 106.828 11.1696C106.732 11.3661 106.789 11.5302 106.997 11.5634C107.006 11.5647 107.015 11.5639 107.025 11.5639C107.092 11.5639 107.167 11.5283 107.215 11.4683C107.25 11.4255 107.271 11.3713 107.264 11.31C107.229 10.977 106.996 11.1566 106.831 11.1671ZM107.379 10.4558C107.238 10.4011 107.163 10.4348 107.124 10.5835C107.092 10.704 107.124 10.7697 107.243 10.7918C107.373 10.8548 107.518 10.8026 107.555 10.7122C107.592 10.6238 107.504 10.5044 107.379 10.4558ZM107.181 11.977C107.181 11.9784 107.18 11.9804 107.18 11.982C107.155 12.0821 107.054 12.2139 107.214 12.2647C107.269 12.2821 107.321 12.2771 107.367 12.257C107.435 12.2266 107.489 12.1614 107.523 12.0771C107.566 11.9726 107.554 11.8933 107.436 11.8549C107.301 11.7922 107.214 11.8325 107.181 11.977ZM108.24 10.4895C108.118 10.4373 108.046 10.468 108.009 10.571C108.01 10.6307 108.004 10.6888 107.993 10.7454C108.007 10.8308 108.057 10.8993 108.139 10.9529C108.266 10.9466 108.394 10.9154 108.424 10.7982C108.459 10.66 108.379 10.5487 108.24 10.4895ZM108.28 11.5415C108.292 11.5415 108.304 11.5396 108.316 11.5371C108.317 11.5335 108.319 11.5302 108.319 11.5266C108.247 11.4694 108.183 11.3973 108.102 11.3583C108.004 11.3113 107.964 11.1455 107.832 11.1665C107.809 11.1704 107.783 11.179 107.754 11.1956C107.608 11.2785 107.65 11.3666 107.693 11.4595C107.704 11.4846 107.716 11.51 107.724 11.5357C107.799 11.7737 107.926 11.6689 108.065 11.6095C108.125 11.5838 108.209 11.6139 108.282 11.6189C108.297 11.5982 108.305 11.5758 108.312 11.5523C108.298 11.552 108.284 11.5512 108.271 11.5495C108.273 11.5468 108.276 11.544 108.28 11.5415ZM109.029 11.0226C108.911 11.0911 108.762 11.1353 108.685 11.2351C108.604 11.3409 108.727 11.3962 108.861 11.4302C108.976 11.4415 109.115 11.4067 109.149 11.2511C109.163 11.1864 109.072 11.0997 109.029 11.0226ZM108.808 12.1113C108.826 12.1241 108.844 12.1368 108.86 12.1498C108.846 12.0768 108.831 12.0041 108.817 11.9314C108.814 11.929 108.811 11.9256 108.809 11.9229C108.711 11.8275 108.655 11.6327 108.456 11.7825C108.416 11.8126 108.344 11.8231 108.391 11.9016C108.499 12.0801 108.6 12.2686 108.864 12.1708C108.842 12.1514 108.824 12.1318 108.808 12.1113ZM108.163 13.6934C108.169 13.6939 108.175 13.6939 108.181 13.6939C108.265 13.6961 108.38 13.6575 108.375 13.5555C108.369 13.4347 108.275 13.3524 108.141 13.3239C108.095 13.314 108.062 13.3187 108.036 13.333C108.005 13.3507 107.984 13.3842 107.967 13.4278C108.005 13.5403 108.022 13.6796 108.163 13.6934ZM107.022 15.1414C107.044 15.1729 107.072 15.2008 107.109 15.2226C107.219 15.2887 107.381 15.2119 107.37 15.1124C107.365 15.0621 107.38 14.9916 107.373 14.9275C107.366 14.8615 107.334 14.8015 107.232 14.7766C107.123 14.7506 107.042 14.7429 107.005 14.8684C106.963 14.9709 106.971 15.0673 107.022 15.1414ZM107.525 14.4143C107.566 14.3696 107.663 14.3121 107.667 14.2505C107.674 14.0943 107.59 13.954 107.467 13.8617C107.398 13.8094 107.337 13.8675 107.291 13.9504C107.176 14.1609 107.407 14.2032 107.525 14.4143ZM107.677 12.7867C107.701 12.7895 107.725 12.7895 107.748 12.7903C107.742 12.8025 107.737 12.8146 107.732 12.8268C108.027 13.0302 108.255 12.9428 108.385 12.5761C108.377 12.5734 108.368 12.5726 108.359 12.5687C108.359 12.5681 108.358 12.5679 108.358 12.5673C108.372 12.5562 108.386 12.5457 108.4 12.5341C108.358 12.3335 108.271 12.1509 108.033 12.2028C107.734 12.2683 107.667 12.5129 107.677 12.7867ZM107.424 13.1158C107.427 12.9987 107.413 12.8787 107.429 12.7635C107.43 12.753 107.43 12.7419 107.432 12.7314C107.262 12.6466 107.088 12.5905 106.902 12.6441C106.881 12.6499 106.86 12.6563 106.839 12.6651C106.387 13.3087 107.114 13.2056 107.325 13.4298C107.403 13.3319 107.421 13.2253 107.424 13.1158ZM106.178 16.5609C106.243 16.5761 106.307 16.5756 106.335 16.528C106.343 16.5151 106.349 16.4996 106.351 16.4791C106.361 16.3603 106.312 16.252 106.195 16.202C106.09 16.1575 106.073 16.2539 106.058 16.2802C106.055 16.286 106.054 16.2912 106.051 16.297C105.978 16.4673 106.046 16.5303 106.178 16.5609ZM106.791 13.9332C106.875 13.7962 106.786 13.6674 106.66 13.598C106.562 13.5433 106.434 13.4986 106.385 13.6688C106.318 13.8222 106.368 13.9542 106.487 14.0324C106.603 14.1087 106.736 14.0242 106.791 13.9332ZM105.908 15.5656C105.965 15.436 106.113 15.2721 106.075 15.1909C106.003 15.0372 105.817 15.1154 105.674 15.158C105.655 15.2165 105.636 15.2751 105.617 15.3337L105.567 15.4876C105.554 15.5252 105.542 15.5631 105.53 15.6007C105.658 15.6172 105.801 15.8076 105.908 15.5656ZM106.343 12.3788C106.419 12.4029 106.485 12.404 106.544 12.386C106.619 12.3631 106.681 12.3086 106.735 12.223C106.643 12.1061 106.786 11.88 106.581 11.8392C106.478 11.8184 106.396 11.8579 106.339 11.9314C106.304 11.9773 106.277 12.0362 106.262 12.1025C106.253 12.1417 106.238 12.1813 106.232 12.2186C106.22 12.2846 106.232 12.3429 106.341 12.378C106.341 12.3783 106.342 12.3786 106.343 12.3788ZM105.243 14.508C105.221 14.6006 105.265 14.6755 105.351 14.6683C105.465 14.6586 105.592 14.623 105.62 14.4834C105.64 14.3837 105.545 14.3663 105.478 14.3364C105.313 14.2762 105.273 14.3859 105.243 14.508ZM105.599 13.9965C105.734 13.9487 105.857 13.8882 105.874 13.7241C105.887 13.5958 105.842 13.4648 105.727 13.4336C105.538 13.3814 105.516 13.6168 105.385 13.6735C105.347 13.8617 105.576 13.8597 105.599 13.9965ZM105.675 12.7654C105.647 12.9006 105.724 12.9351 105.826 12.9594C105.999 13.0205 106.041 12.8914 106.046 12.7776C106.048 12.7334 106.031 12.6684 106.011 12.6157C105.997 12.5781 105.981 12.5469 105.968 12.5325C105.963 12.5272 105.959 12.5239 105.955 12.5242C105.817 12.5336 105.709 12.6082 105.675 12.7654ZM106.108 11.5374C106.118 11.5352 106.128 11.5327 106.137 11.5283C106.197 11.5001 106.247 11.4589 106.284 11.4083C106.338 11.3337 106.365 11.2376 106.35 11.1276C106.31 10.8416 106.128 11.03 106.005 11.0248C105.98 11.0499 105.95 11.0715 105.92 11.0933C105.83 11.1594 105.744 11.2265 105.848 11.3873C105.859 11.4042 105.872 11.4199 105.884 11.4349C105.95 11.5111 106.032 11.5551 106.108 11.5374ZM105.548 11.7449C105.543 11.7433 105.538 11.7427 105.532 11.7416C105.425 11.7181 105.366 11.7576 105.347 11.8654C105.291 11.9834 105.336 12.1111 105.408 12.1575C105.415 12.1622 105.422 12.1669 105.43 12.1699C105.511 12.2009 105.633 12.1155 105.68 11.9917C105.735 11.8485 105.687 11.7817 105.548 11.7449ZM104.759 14.1013C104.933 14.1383 104.91 13.9667 104.95 13.873C104.991 13.7801 105.003 13.6563 104.867 13.658C104.768 13.6591 104.669 13.7426 104.584 13.7826C104.604 13.9457 104.63 14.0733 104.759 14.1013ZM104.872 12.9169C104.851 13.0078 104.79 13.1285 104.927 13.1581C105.095 13.1949 105.215 13.0647 105.339 12.9719C105.258 12.8901 105.19 12.7809 105.092 12.732C104.916 12.6436 104.925 12.8279 104.872 12.9169ZM105.31 10.4177C105.316 10.5882 105.382 10.7708 105.515 10.8131C105.59 10.8369 105.659 10.7811 105.709 10.699C105.736 10.6537 105.757 10.6003 105.769 10.5475C105.795 10.4282 105.841 10.3204 105.66 10.2831C105.609 10.2726 105.565 10.274 105.523 10.2809C105.439 10.2941 105.369 10.3384 105.31 10.4177ZM105.87 9.64862C105.869 9.64807 105.869 9.64724 105.868 9.64669C105.852 9.6699 105.832 9.69256 105.813 9.71522C105.788 9.7459 105.766 9.77684 105.762 9.81001C105.733 10.0314 105.913 9.9747 106.036 9.99985C106.034 9.9747 106.03 9.95149 106.025 9.928C106.005 9.81829 105.955 9.72517 105.87 9.64862ZM104.566 7.73941C104.588 7.87841 104.537 8.08676 104.796 8.14535C105.018 8.19592 105.252 8.16773 105.474 8.21388C105.499 8.21885 105.523 8.22659 105.547 8.23378C105.636 8.25782 105.725 8.28241 105.813 8.30839C105.847 8.29595 105.872 8.26611 105.876 8.21664C105.881 8.14894 105.864 8.08842 105.83 8.03647C105.802 7.99613 105.766 7.9602 105.714 7.9334C105.433 7.78639 105.059 7.84248 104.85 7.53851C104.85 7.53989 104.851 7.54072 104.851 7.54183C104.851 7.54542 104.85 7.54846 104.85 7.55205C104.85 7.54818 104.849 7.54514 104.849 7.54127C104.625 7.4219 104.54 7.58411 104.566 7.73941ZM104.85 5.54584C104.947 5.29686 105.03 5.0838 105.113 4.87102C105.101 4.78398 105.088 4.69693 105.076 4.60988C105.099 4.24567 104.798 3.86654 105.092 3.46502C105.442 3.75821 105.403 4.11441 105.41 4.46039C105.812 4.29293 105.722 3.95994 105.742 3.65652C105.749 3.54626 105.756 3.35614 105.978 3.40395C106.135 3.43794 106.11 3.53355 106.114 3.66398C106.126 4.06578 105.982 4.39876 105.814 4.75745C105.65 5.10812 105.18 5.3093 105.292 5.79123C105.423 5.65748 105.603 5.59862 105.698 5.39441C105.813 5.1446 106.018 4.92878 106.214 4.72788C106.275 4.66653 106.406 4.49603 106.542 4.66515C106.627 4.77071 106.554 4.84284 106.499 4.95641C106.225 5.53147 105.879 6.01451 105.253 6.24857C105.064 6.31903 104.836 6.43509 104.852 6.65174C104.868 6.8847 105.061 7.08255 105.284 7.15965C105.535 7.24725 105.775 7.39924 106.073 7.34867C106.232 7.32159 106.429 7.32822 106.489 7.5526C106.679 7.59157 106.772 7.92124 106.971 7.79965C107.156 7.68635 107.171 7.46611 106.988 7.25665C106.93 7.19088 107.028 7.01153 107.12 6.89575C107.358 6.59648 107.377 6.33534 106.94 6.19689C106.836 6.16428 106.634 6.07503 106.75 5.99157C107.162 5.69506 107.074 4.91496 107.807 4.93099C107.506 4.67234 107.511 4.41562 107.937 4.03842C107.435 4.24484 107.194 3.71759 106.756 3.98868C106.652 4.05279 106.607 3.68167 106.63 3.45286C106.647 3.276 106.997 2.89714 106.411 2.86951C106.264 2.8626 106.285 2.53072 106.401 2.40692C106.777 2.0043 106.565 1.74786 106.229 1.52513C105.613 1.97086 105.304 2.64319 104.939 3.2901C104.817 3.50674 104.516 3.4092 104.396 3.1044C104.345 2.9748 104.367 2.68077 104.124 2.77611C103.84 2.8872 103.477 2.98447 103.409 3.34675C103.368 3.56367 103.584 3.86018 103.136 3.87345C102.967 3.87842 103.086 4.03123 103.097 4.09148C103.169 4.50128 103.074 4.71379 102.608 4.56539C102.561 4.5502 102.462 4.56153 102.451 4.5875C102.228 5.11448 101.56 5.50024 101.923 6.21513C102.119 6.60863 102.56 6.21734 102.663 6.35827C103.031 6.8648 103.498 6.31793 103.894 6.54452C103.909 6.55337 103.925 6.55779 103.941 6.56304C104.009 6.56166 104.068 6.55779 104.117 6.54977C104.224 6.49699 104.313 6.3638 104.331 6.15047C104.38 5.59613 104.056 5.11227 104.13 4.5676C104.149 4.42087 104.065 4.22716 104.322 4.25258C104.511 4.27165 104.612 4.33189 104.574 4.59607C104.529 4.90557 104.497 5.26923 104.833 5.54777C104.839 5.54722 104.844 5.54695 104.85 5.54584ZM104.831 7.68248C104.836 7.6438 104.842 7.60069 104.849 7.55205C104.848 7.60759 104.854 7.65319 104.867 7.69105C104.855 7.68801 104.843 7.68525 104.831 7.68248Z" fill="#384C63"/>
</g>
<defs>
<clipPath id="clip0_2_13">
<rect width="160" height="63" fill="white"/>
</clipPath>
</defs>
</svg>
